<svg width="664" height="231" viewBox="0 0 664 231" fill="none" xmlns="http://www.w3.org/2000/svg">
<path d="M408.745 157.05C399.606 157.05 391.502 155.1 384.434 151.2C377.366 147.301 371.822 141.817 367.801 134.749C363.779 127.682 361.769 119.517 361.769 110.256C361.769 100.873 363.718 92.5255 367.618 85.214C371.639 77.9025 377.123 72.2361 384.069 68.2148C391.136 64.0716 399.423 62 408.928 62C417.824 62 425.683 63.9497 432.507 67.8492C439.331 71.7487 444.632 77.1104 448.41 83.9345C452.309 90.6367 454.259 98.131 454.259 106.417C454.259 107.758 454.198 109.159 454.076 110.622C454.076 112.084 454.015 113.607 453.894 115.191H384.983C385.47 122.259 387.907 127.804 392.294 131.825C396.803 135.846 402.226 137.857 408.562 137.857C413.315 137.857 417.275 136.821 420.443 134.749C423.734 132.556 426.171 129.753 427.755 126.341H451.517C449.811 132.069 446.948 137.309 442.926 142.061C439.027 146.692 434.153 150.347 428.303 153.028C422.576 155.709 416.057 157.05 408.745 157.05ZM408.928 81.0099C403.2 81.0099 398.143 82.655 393.756 85.9452C389.37 89.1135 386.567 93.9878 385.348 100.568H430.497C430.131 94.5971 427.938 89.8447 423.916 86.3108C419.895 82.7769 414.899 81.0099 408.928 81.0099Z" fill="white"/>
<path d="M512.323 157.05C503.549 157.05 495.628 155.039 488.56 151.018C481.614 146.996 476.07 141.452 471.927 134.384C467.905 127.194 465.895 118.908 465.895 109.525C465.895 100.142 467.966 91.9162 472.11 84.8485C476.253 77.6588 481.797 72.0533 488.743 68.032C495.811 64.0107 503.732 62 512.506 62C521.158 62 528.957 64.0107 535.902 68.032C542.97 72.0533 548.515 77.6588 552.536 84.8485C556.679 91.9162 558.751 100.142 558.751 109.525C558.751 118.908 556.679 127.194 552.536 134.384C548.515 141.452 542.97 146.996 535.902 151.018C528.835 155.039 520.975 157.05 512.323 157.05ZM512.323 136.76C518.416 136.76 523.717 134.506 528.225 129.997C532.734 125.366 534.988 118.542 534.988 109.525C534.988 100.507 532.734 93.7441 528.225 89.2354C523.717 84.6047 518.477 82.2894 512.506 82.2894C506.291 82.2894 500.929 84.6047 496.42 89.2354C492.033 93.7441 489.84 100.507 489.84 109.525C489.84 118.542 492.033 125.366 496.42 129.997C500.929 134.506 506.23 136.76 512.323 136.76Z" fill="white"/>
<path d="M574.552 154.856V64.1935H595.207L597.035 79.5476C599.838 74.1858 603.859 69.9208 609.099 66.7525C614.461 63.5842 620.736 62 627.926 62C639.137 62 647.85 65.5339 654.065 72.6017C660.279 79.6695 663.387 90.0274 663.387 103.676V154.856H639.99V105.869C639.99 98.0701 638.406 92.099 635.238 87.9558C632.069 83.8127 627.134 81.7411 620.432 81.7411C613.851 81.7411 608.429 84.0564 604.164 88.687C600.02 93.3176 597.949 99.7761 597.949 108.062V154.856H574.552Z" fill="white"/>
<path d="M261 64.6959L287.345 64.6959L311.155 125.295H286.07L261 64.6959Z" fill="white"/>
<path d="M362.179 64.6959L337.59 64.6959L285.395 182L311.155 182L362.179 64.6959Z" fill="white"/>
<path d="M231 115.5C231 179.289 179.289 231 115.5 231C51.7111 231 0 179.289 0 115.5C0 51.7111 51.7111 0 115.5 0C179.289 0 231 51.7111 231 115.5Z" fill="#FF3C27"/>
<path d="M169.075 61.9999L66 62.0017L91 122.792H115.5L90.1934 179.516L117.958 179.516L169.075 61.9999Z" fill="white"/>
</svg>
